<?xml version="1.0" encoding="utf-8"?>
<!-- Generator: Adobe Illustrator 17.0.0, SVG Export Plug-In . SVG Version: 6.00 Build 0)  -->
<!DOCTYPE svg PUBLIC "-//W3C//DTD SVG 1.1//EN" "http://www.w3.org/Graphics/SVG/1.1/DTD/svg11.dtd">
<svg version="1.1" id="Шар_1" xmlns="http://www.w3.org/2000/svg" xmlns:xlink="http://www.w3.org/1999/xlink" x="0px" y="0px"
	 width="200px" height="200px" viewBox="0 0 200 200" enable-background="new 0 0 200 200" xml:space="preserve">
<g>
	<path fill="#FFFFFF" d="M16.862,118.155c3.324,0,5.625,1.516,7.122,3.068l-2.338,2.662c-1.205-1.183-2.52-1.996-4.748-1.996
		c-4.237,0-7.086,3.327-7.086,8.762c0,5.508,2.557,8.836,7.341,8.836c1.315,0,2.63-0.37,3.397-1.072v-5.213h-4.493v-3.512h8.291
		v10.647c-1.644,1.553-4.456,2.884-7.707,2.884c-6.355,0-11.177-4.436-11.177-12.459C5.466,122.85,10.433,118.155,16.862,118.155z"
		/>
	<path fill="#FFFFFF" d="M66.046,118.598H80.4v3.623H70.283v6.174h8.583v3.623h-8.583v7.135h10.483v3.623h-14.72V118.598z"/>
	<path fill="#FFFFFF" d="M133.128,136.233h-7.998l-1.863,6.544h-4.346l7.816-24.178h4.967l7.781,24.178h-4.493L133.128,136.233z
		 M132.18,132.869l-0.841-2.958c-0.73-2.551-1.461-5.324-2.155-7.985h-0.146c-0.657,2.699-1.351,5.435-2.118,7.985l-0.84,2.958
		H132.18z"/>
	<path fill="#FFFFFF" d="M191.845,142.776l-5.149-9.464h-3.617v9.464h-4.237v-24.178h8.035c4.967,0,8.801,1.775,8.801,7.172
		c0,3.697-1.899,5.915-4.784,6.913l5.698,10.093H191.845z M183.079,129.911h3.36c3.287,0,5.04-1.405,5.04-4.141
		c0-2.773-1.753-3.734-5.04-3.734h-3.36V129.911z"/>
</g>
<g>
	<path fill="#D73D4D" d="M3.667,58.746h17.066c9.481,0,17.608,3.564,17.608,14.806c0,10.899-8.397,15.63-17.608,15.63h-5.418v14.12
		H3.667V58.746z M20.192,79.858c4.605,0,6.772-2.331,6.772-6.307s-2.438-5.484-6.772-5.484h-4.876v11.79L20.192,79.858
		L20.192,79.858z"/>
	<path fill="#D73D4D" d="M61.333,103.302l-7.585-14.943h-4.47v14.943H37.629V58.746h16.66c9.481,0,17.609,3.29,17.609,14.394
		c0,6.376-2.844,10.557-7.111,12.887l9.549,17.274L61.333,103.302L61.333,103.302z M49.278,79.035h4.199
		c4.605,0,7.043-2.056,7.043-5.895c0-3.838-2.438-5.072-7.043-5.072h-4.199V79.035z"/>
	<path fill="#D73D4D" d="M70.719,80.818c0-14.669,8.262-22.896,20.452-22.896s20.452,8.294,20.452,22.896
		c0,14.668-8.262,23.306-20.452,23.306S70.719,95.487,70.719,80.818z M99.704,80.818c0-8.089-3.252-12.751-8.534-12.751
		c-5.282,0-8.533,4.662-8.533,12.751c0,8.088,3.251,13.161,8.533,13.161C96.453,93.98,99.704,88.906,99.704,80.818z"/>
	<path fill="#D73D4D" d="M112.293,58.746h12.054l6.908,18.507l2.438,7.266h0.272l2.438-7.266l6.636-18.507h12.055v44.556h-10.836
		V90.14c0-4.524,0.948-11.447,1.49-15.903h-0.271l-3.657,10.419l-6.095,15.012h-4.334l-6.095-15.012l-3.522-10.419h-0.271
		c0.541,4.455,1.49,11.378,1.49,15.903v13.161h-10.7L112.293,58.746L112.293,58.746z"/>
	<path fill="#D73D4D" d="M155.891,80.818c0-14.669,8.263-22.896,20.453-22.896s20.452,8.294,20.452,22.896
		c0,14.668-8.262,23.306-20.452,23.306S155.891,95.487,155.891,80.818z M184.876,80.818c0-8.089-3.25-12.751-8.532-12.751
		s-8.534,4.662-8.534,12.751c0,8.088,3.252,13.161,8.534,13.161C181.626,93.98,184.876,88.906,184.876,80.818z"/>
</g>
<polygon opacity="0.2" fill="#FFFFFF" enable-background="new    " points="27.406,123.207 125.229,24.193 125.229,170.762 "/>
</svg>
